<svg width="193" height="184" viewBox="0 0 193 184" fill="none" xmlns="http://www.w3.org/2000/svg">
<path d="M122.344 120.845C106.969 131.407 86.719 131.501 71.2502 121.095" stroke="#E60000" stroke-width="8.00001" stroke-miterlimit="10" stroke-linecap="round"/>
<path d="M133.296 133.345C111.187 148.564 82.0152 148.705 59.7651 133.705" stroke="#E60000" stroke-width="8.00001" stroke-miterlimit="10" stroke-linecap="round"/>
<path d="M152.64 84.938C132.547 84.938 112.515 88.0474 112.515 103.672H80.5152C80.5308 88.0474 60.6402 84.938 40.6401 84.938" stroke="white" stroke-width="8.00001" stroke-linecap="round" stroke-linejoin="round"/>
<path d="M96.296 51.7507H72.6397V67.7508H41.2334" stroke="white" stroke-width="8.00001" stroke-linecap="round" stroke-linejoin="round"/>
<path d="M120.64 67.7669V51.7668H96.2964" stroke="white" stroke-width="8.00001" stroke-miterlimit="10" stroke-linecap="round"/>
<path d="M152.047 67.7664H120.641" stroke="white" stroke-width="8.00001" stroke-linecap="round" stroke-linejoin="round"/>
<path d="M40.625 43.438V93.4068" stroke="white" stroke-width="8.00001" stroke-miterlimit="10" stroke-linecap="round"/>
<path d="M20.5935 39.6729H60.6561" stroke="white" stroke-width="8.00001" stroke-miterlimit="10" stroke-linecap="round"/>
<path d="M132.593 39.6729H172.671" stroke="white" stroke-width="8.00001" stroke-miterlimit="10" stroke-linecap="round"/>
<path d="M152.641 43.438V93.4068" stroke="white" stroke-width="8.00001" stroke-miterlimit="10" stroke-linecap="round"/>
<path d="M92.4844 83.7197H100.798" stroke="white" stroke-width="8.00001" stroke-linecap="round" stroke-linejoin="round"/>
</svg>
