<svg width="193" height="193" viewBox="0 0 193 193" fill="none" xmlns="http://www.w3.org/2000/svg">
<path d="M28.5967 140.674C33.4717 110.908 50.9407 92.7359 72.5972 92.7359C79.316 92.7203 85.9255 94.5485 91.6755 98.0173L91.9724 98.2048" stroke="#E60000" stroke-width="8.00001" stroke-miterlimit="10" stroke-linecap="round"/>
<path d="M121.597 94.9075C125.065 93.4231 128.816 92.6575 132.597 92.6731C148.347 92.6731 161.035 105.298 164.597 125.939" stroke="white" stroke-width="8.00001" stroke-miterlimit="10" stroke-linecap="round"/>
<path d="M132.253 156.673C128.816 136.798 117.44 126.548 104.768 126.548C92.0964 126.548 80.3931 136.798 76.9399 156.673" stroke="white" stroke-width="8.00001" stroke-linecap="round" stroke-linejoin="round"/>
<path d="M72.597 36.6729H100.597V64.6732C100.597 80.1421 88.0659 92.6735 72.597 92.6735C57.1281 92.6735 44.5967 80.1421 44.5967 64.6732C44.5967 49.2042 57.1281 36.6729 72.597 36.6729Z" stroke="#E60000" stroke-width="8.00001" stroke-miterlimit="10" stroke-linecap="round"/>
<path d="M132.597 52.6733H152.597V72.6736C152.597 83.7206 143.644 92.6738 132.597 92.6738C121.55 92.6738 112.597 83.7206 112.597 72.6736C112.597 61.6266 121.55 52.6733 132.597 52.6733Z" stroke="white" stroke-width="8.00001" stroke-miterlimit="10" stroke-linecap="round"/>
<path d="M104.597 92.6106H121.598V109.611C121.598 118.986 113.988 126.611 104.597 126.611C95.2066 126.611 87.5972 118.986 87.5972 109.611C87.5972 100.22 95.2066 92.6106 104.597 92.6106Z" stroke="white" stroke-width="8.00001" stroke-miterlimit="10" stroke-linecap="round"/>
</svg>
