<svg width="192" height="192" viewBox="0 0 192 192" fill="none" xmlns="http://www.w3.org/2000/svg">
<path d="M131.881 55.4L125.819 24.2C124.9 19.5063 120.788 16.125 116.006 16.1188H76.7813C72.1188 16.1563 68.1 19.4 67.0875 23.95L60.0875 55.2938C60.0312 55.5813 60 55.875 60 56.1688V136.094C60 136.388 60.0312 136.681 60.0875 136.969L67.0875 168.05C68.1 172.613 72.1375 175.863 76.8063 175.881H115.219C119.869 175.844 123.888 172.6 124.9 168.063L131.9 136.969C131.963 136.681 131.994 136.388 132 136.094V56.1688C131.981 55.9125 131.944 55.6563 131.881 55.4Z" fill="white"/>
<path d="M70 52.1688H121.956C125.275 52.1688 127.956 54.8563 127.956 58.1688V134.094C127.956 137.406 125.275 140.094 121.956 140.094H70C66.6875 140.094 64 137.406 64 134.094V58.1688C64 54.8563 66.6875 52.1688 70 52.1688Z" fill="#E60000"/>
<path d="M62.0561 145.7L61.7061 144.131C62.0123 144.438 62.3498 144.713 62.7061 144.95C62.4061 145.113 62.1748 145.381 62.0561 145.7ZM105.256 148.763C104.912 148.744 104.575 148.863 104.325 149.094C104.069 149.325 103.912 149.65 103.9 149.994C103.875 150.35 104 150.706 104.244 150.969C104.487 151.231 104.831 151.388 105.187 151.394C105.906 151.381 106.494 150.819 106.531 150.1C106.531 149.369 105.95 148.775 105.219 148.763H105.256ZM105.206 152.763C104.619 152.769 104.131 153.231 104.1 153.819C104.119 154.419 104.619 154.894 105.219 154.881C105.506 154.881 105.781 154.763 105.981 154.556C106.181 154.344 106.287 154.069 106.281 153.781C106.25 153.206 105.794 152.75 105.219 152.731L105.206 152.763ZM105.206 156.763C104.775 156.806 104.444 157.175 104.444 157.619C104.444 158.056 104.775 158.425 105.206 158.469C105.444 158.481 105.675 158.388 105.844 158.219C106.012 158.05 106.1 157.819 106.087 157.581C106.075 157.113 105.687 156.744 105.219 156.744L105.206 156.763ZM109.087 156.763C108.737 156.756 108.419 156.963 108.287 157.288C108.15 157.613 108.225 157.981 108.469 158.231C108.719 158.475 109.087 158.55 109.412 158.413C109.737 158.281 109.944 157.963 109.937 157.613C109.937 157.131 109.55 156.744 109.069 156.744L109.087 156.763ZM109.087 152.763C108.5 152.731 108 153.175 107.956 153.763C107.931 154.063 108.031 154.363 108.237 154.581C108.444 154.8 108.737 154.919 109.037 154.913C109.631 154.919 110.125 154.444 110.137 153.85C110.137 153.269 109.687 152.781 109.106 152.731L109.087 152.763ZM105.037 160.881C104.931 161.031 104.687 161.231 104.656 161.463C104.631 161.694 104.856 162 105.206 162C105.356 162.013 105.506 161.956 105.612 161.85C105.719 161.744 105.769 161.594 105.75 161.444C105.75 161.1 105.537 160.881 105.037 160.881ZM108.519 161.481C108.519 161.819 108.756 162.069 109.087 161.994C109.419 161.913 109.5 161.681 109.85 161.4C109.469 161.169 109.256 160.944 109.031 160.913C108.8 160.881 108.487 161.144 108.519 161.494V161.481ZM97.7061 156.719C97.2436 156.719 96.8561 157.069 96.8061 157.531C96.7998 157.769 96.8873 158 97.0498 158.175C97.2123 158.344 97.4436 158.444 97.6811 158.444C98.1436 158.444 98.5248 158.069 98.5311 157.6C98.5186 157.144 98.1623 156.769 97.7061 156.731V156.719ZM109 148.719C108.281 148.75 107.719 149.344 107.731 150.063C107.762 150.775 108.35 151.344 109.069 151.35C109.781 151.338 110.356 150.756 110.369 150.044C110.362 149.688 110.212 149.356 109.956 149.113C109.694 148.869 109.35 148.744 109 148.763V148.719ZM97.5061 160.881C97.3998 161.031 97.1561 161.231 97.1311 161.463C97.0998 161.694 97.3311 162 97.6811 162C97.8311 162.013 97.9748 161.956 98.0811 161.844C98.1811 161.738 98.2311 161.588 98.2186 161.444C98.2186 161.1 97.9998 160.881 97.5061 160.881ZM97.7373 152.719C97.4373 152.706 97.1436 152.813 96.9248 153.019C96.7061 153.225 96.5748 153.513 96.5686 153.813C96.5748 154.4 97.0498 154.875 97.6373 154.881C97.9186 154.9 98.1936 154.8 98.4061 154.613C98.6186 154.425 98.7436 154.163 98.7561 153.881C98.7873 153.288 98.3373 152.775 97.7373 152.731V152.719ZM97.7373 148.719C97.0248 148.681 96.4061 149.225 96.3561 149.944C96.3373 150.3 96.4623 150.656 96.7061 150.919C96.9498 151.188 97.2873 151.344 97.6498 151.35C98.3686 151.35 98.9561 150.788 98.9998 150.069C98.9873 149.369 98.4373 148.8 97.7373 148.763V148.719ZM101.469 152.719C100.85 152.719 100.344 153.219 100.337 153.844C100.356 154.438 100.844 154.906 101.437 154.9C101.725 154.925 102.012 154.819 102.212 154.613C102.419 154.413 102.525 154.131 102.506 153.844C102.512 153.25 102.056 152.763 101.469 152.731V152.719ZM101.469 160.9C101.131 160.9 100.869 161.113 100.931 161.45C100.987 161.794 101.219 161.869 101.481 162.244C101.731 161.869 101.956 161.669 102.006 161.444C102.056 161.213 101.781 160.881 101.431 160.881L101.469 160.9ZM101.469 148.75C100.756 148.731 100.156 149.288 100.131 150C100.112 150.363 100.25 150.713 100.494 150.969C100.744 151.231 101.087 151.381 101.45 151.381C102.162 151.356 102.731 150.781 102.756 150.069C102.756 149.356 102.187 148.775 101.469 148.763V148.75ZM101.406 156.75C101.081 156.738 100.775 156.913 100.619 157.194C100.462 157.481 100.481 157.831 100.669 158.1C100.856 158.369 101.175 158.506 101.5 158.463C101.962 158.425 102.312 158.025 102.287 157.563C102.262 157.094 101.875 156.738 101.406 156.744V156.75ZM124.219 160.663C123.969 161.019 123.731 161.231 123.7 161.469C123.669 161.713 123.887 162.019 124.25 162.031C124.606 162.044 124.919 161.731 124.819 161.413C124.719 161.094 124.537 160.994 124.219 160.663ZM120.431 148.763C119.719 148.738 119.119 149.3 119.1 150.013C119.081 150.369 119.212 150.725 119.462 150.981C119.712 151.244 120.056 151.394 120.419 151.394C121.137 151.363 121.706 150.788 121.731 150.069C121.725 149.369 121.169 148.794 120.469 148.763H120.431ZM124.256 156.763C123.794 156.769 123.419 157.138 123.406 157.6C123.4 157.838 123.494 158.069 123.662 158.231C123.831 158.4 124.062 158.488 124.3 158.469C124.737 158.425 125.069 158.056 125.069 157.619C125.069 157.175 124.737 156.806 124.3 156.763H124.256ZM120.4 152.763C119.806 152.769 119.325 153.238 119.3 153.831C119.281 154.406 119.725 154.9 120.3 154.944C120.581 154.963 120.862 154.869 121.081 154.681C121.294 154.494 121.425 154.225 121.437 153.944C121.469 153.65 121.381 153.356 121.194 153.125C121.006 152.9 120.731 152.756 120.437 152.731L120.4 152.763ZM124.269 152.763C123.669 152.781 123.2 153.281 123.219 153.881C123.219 154.169 123.337 154.444 123.55 154.638C123.769 154.825 124.056 154.919 124.337 154.881C124.937 154.869 125.412 154.375 125.4 153.781C125.362 153.2 124.887 152.744 124.306 152.731L124.269 152.763ZM93.8311 148.763C93.4686 148.75 93.1186 148.881 92.8623 149.131C92.5998 149.375 92.4498 149.719 92.4498 150.081C92.4811 150.794 93.0498 151.363 93.7561 151.394C94.4748 151.388 95.0561 150.819 95.0811 150.1C95.1061 149.4 94.5686 148.806 93.8686 148.763H93.8311ZM112.237 161.494C112.237 161.831 112.481 162.081 112.806 162C113.137 161.919 113.231 161.694 113.569 161.413C113.2 161.181 112.987 160.95 112.75 160.919C112.506 160.894 112.219 161.144 112.281 161.494H112.237ZM124.237 148.763C123.519 148.756 122.931 149.331 122.931 150.05C122.937 150.769 123.5 151.356 124.219 151.394C124.581 151.394 124.925 151.25 125.175 150.994C125.431 150.738 125.569 150.394 125.556 150.031C125.544 149.338 124.981 148.775 124.287 148.763H124.237ZM120.331 156.763C119.869 156.806 119.519 157.2 119.531 157.663C119.562 158.119 119.95 158.475 120.406 158.469C120.875 158.469 121.25 158.088 121.25 157.619C121.25 157.388 121.162 157.163 121 157C120.831 156.831 120.612 156.744 120.381 156.744L120.331 156.763ZM112.85 148.763C112.494 148.744 112.137 148.869 111.875 149.113C111.612 149.356 111.456 149.694 111.45 150.05C111.456 150.769 112.025 151.356 112.737 151.394C113.456 151.4 114.044 150.838 114.081 150.119C114.112 149.425 113.594 148.825 112.9 148.763H112.85ZM112.787 152.763C112.487 152.756 112.194 152.881 111.987 153.1C111.775 153.319 111.669 153.619 111.687 153.919C111.687 154.206 111.806 154.481 112.025 154.675C112.237 154.869 112.525 154.956 112.806 154.919C113.4 154.913 113.881 154.425 113.881 153.831C113.869 153.25 113.419 152.775 112.837 152.731L112.787 152.763ZM116.05 161.431C116.05 161.769 116.306 162.131 116.631 162.05C116.95 161.969 117.069 161.75 117.419 161.5C117.081 161.231 116.887 160.981 116.656 160.931C116.431 160.881 116.15 161.05 116.1 161.4L116.05 161.431ZM112.75 156.763C112.287 156.788 111.925 157.169 111.919 157.631C111.894 157.956 112.056 158.275 112.344 158.438C112.625 158.606 112.981 158.594 113.25 158.413C113.525 158.231 113.675 157.906 113.631 157.581C113.606 157.125 113.25 156.763 112.8 156.731L112.75 156.763ZM116.637 156.763C116.2 156.788 115.85 157.144 115.831 157.588C115.812 158.025 116.131 158.406 116.569 158.469C116.894 158.519 117.219 158.375 117.4 158.106C117.587 157.831 117.6 157.481 117.437 157.194C117.275 156.913 116.969 156.744 116.637 156.763ZM116.55 148.763C115.837 148.8 115.287 149.406 115.319 150.119C115.35 150.838 115.944 151.4 116.656 151.394C117.375 151.356 117.937 150.769 117.95 150.05C117.925 149.325 117.325 148.75 116.6 148.763H116.55ZM116.619 152.763C116.025 152.775 115.55 153.25 115.531 153.844C115.525 154.144 115.65 154.431 115.862 154.644C116.081 154.856 116.375 154.963 116.681 154.95C116.962 154.938 117.225 154.806 117.412 154.6C117.6 154.388 117.694 154.113 117.681 153.831C117.687 153.256 117.244 152.775 116.669 152.731L116.619 152.763ZM119.819 161.431C119.819 161.769 120.069 162.131 120.4 162.05C120.731 161.969 120.831 161.75 121.187 161.5C120.837 161.231 120.65 160.981 120.419 160.931C120.187 160.881 119.906 161.05 119.869 161.4L119.819 161.431ZM82.4186 152.763C81.8123 152.775 81.3311 153.275 81.3311 153.881C81.3311 154.169 81.4561 154.438 81.6623 154.638C81.8686 154.831 82.1436 154.938 82.4311 154.931C82.7186 154.956 82.9998 154.85 83.2061 154.65C83.4123 154.45 83.5248 154.169 83.5061 153.881C83.5248 153.588 83.4248 153.3 83.2311 153.088C83.0373 152.869 82.7623 152.744 82.4686 152.731L82.4186 152.763ZM70.9811 147.763C71.7936 147.75 72.4498 147.094 72.4561 146.281C72.4561 146.281 72.4561 146.2 72.4561 146.15H69.6061C69.6061 146.213 69.6061 146.275 69.6061 146.344C69.6686 147.088 70.2811 147.663 71.0311 147.681L70.9811 147.763ZM82.3998 147.763C83.1748 147.75 83.7998 147.125 83.8186 146.35C83.8248 146.288 83.8248 146.225 83.8186 146.163H80.9811C80.9811 146.213 80.9811 146.25 80.9811 146.3C81.0436 147.069 81.6811 147.663 82.4498 147.669L82.3998 147.763ZM64.6998 150.05C64.6748 149.338 64.0936 148.763 63.3811 148.744C63.1436 148.744 62.9186 148.806 62.7186 148.931L63.2561 151.35C63.2561 151.35 63.3561 151.35 63.4061 151.35C63.7748 151.356 64.1248 151.206 64.3748 150.944C64.6311 150.681 64.7623 150.325 64.7498 149.963L64.6998 150.05ZM64.8186 146.269C64.8311 146.169 64.8311 146.063 64.8186 145.963C64.0686 145.775 63.3561 145.469 62.7061 145.044C62.4061 145.2 62.1686 145.469 62.0498 145.794L62.3998 147.344C62.8186 147.763 63.4498 147.881 63.9936 147.644C64.5373 147.413 64.8811 146.863 64.8561 146.269H64.8186ZM74.6873 147.763C75.4998 147.794 76.1936 147.163 76.2311 146.35C76.2311 146.288 76.2311 146.225 76.2311 146.163H73.3686C73.3686 146.213 73.3686 146.25 73.3686 146.3C73.4061 147.044 73.9998 147.638 74.7373 147.669L74.6873 147.763ZM78.4873 147.763C79.2936 147.769 79.9623 147.131 79.9873 146.319C79.9936 146.269 79.9936 146.213 79.9873 146.163H77.1498C77.1498 146.163 77.1498 146.213 77.1498 146.244C77.1561 147.013 77.7686 147.638 78.5373 147.669L78.4873 147.763ZM67.1873 147.763C67.9686 147.731 68.5873 147.088 68.5873 146.3C68.5873 146.25 68.5873 146.2 68.5873 146.15H66.4561C66.2186 146.169 65.9811 146.169 65.7373 146.15C65.7061 146.556 65.8498 146.956 66.1311 147.25C66.4186 147.544 66.8123 147.7 67.2186 147.681L67.1873 147.763ZM67.0873 152.763C66.5186 152.825 66.0873 153.306 66.0873 153.881C66.1061 154.169 66.2436 154.444 66.4686 154.631C66.6873 154.819 66.9811 154.906 67.2686 154.881C67.5561 154.869 67.8248 154.738 68.0123 154.519C68.1998 154.3 68.2936 154.019 68.2686 153.731C68.2248 153.144 67.7248 152.7 67.1373 152.731L67.0873 152.763ZM67.2186 160.881C67.0686 160.863 66.9186 160.906 66.8061 161.013C66.6936 161.113 66.6311 161.263 66.6373 161.413C66.6373 161.75 66.8373 162.013 67.1686 161.969C67.4998 161.931 67.5998 161.7 67.7561 161.6C67.7311 161.131 67.5561 160.881 67.2186 160.881ZM67.2186 156.713C66.8936 156.688 66.5811 156.856 66.4186 157.138C66.2498 157.425 66.2623 157.775 66.4498 158.05C66.6311 158.325 66.9561 158.469 67.2811 158.419C67.4998 158.413 67.7123 158.313 67.8623 158.15C68.0123 157.981 68.0873 157.763 68.0811 157.544C68.0498 157.088 67.6748 156.738 67.2186 156.744V156.713ZM64.5061 153.881C64.5186 153.356 64.1561 152.9 63.6498 152.781L64.0811 154.694C64.3436 154.506 64.5061 154.206 64.5061 153.881ZM126.981 153.763C126.931 154.3 127.3 154.781 127.831 154.881L128.3 152.794C128.244 152.763 128.187 152.75 128.131 152.744C127.537 152.713 127.025 153.156 126.981 153.75V153.763ZM127.219 157.581L127.287 157.294C127.244 157.363 127.219 157.444 127.206 157.531C127.212 157.544 127.212 157.556 127.219 157.569V157.581ZM128.1 148.769C127.381 148.75 126.775 149.306 126.737 150.019C126.725 150.775 127.325 151.388 128.081 151.4C128.275 151.388 128.475 151.331 128.65 151.244L129.087 149.244C128.85 148.938 128.487 148.763 128.1 148.763V148.769ZM116.7 147.694C117.087 147.681 117.462 147.519 117.731 147.238C118 146.95 118.144 146.575 118.131 146.181C118.131 146.181 118.131 146.113 118.131 146.081H115.219C115.219 146.131 115.219 146.169 115.219 146.219C115.237 147.031 115.894 147.675 116.7 147.681V147.694ZM112.787 147.694C113.6 147.694 114.269 147.044 114.287 146.231C114.287 146.181 114.287 146.131 114.287 146.081H111.387C111.387 146.081 111.387 146.144 111.387 146.169C111.369 146.975 111.987 147.644 112.787 147.681V147.694ZM109 147.694C109.812 147.706 110.487 147.075 110.519 146.263C110.519 146.2 110.519 146.15 110.519 146.094H107.637C107.631 146.144 107.631 146.194 107.637 146.244C107.65 147 108.244 147.625 109 147.669V147.694ZM120.4 147.694C120.787 147.7 121.169 147.55 121.45 147.275C121.725 147.006 121.887 146.631 121.887 146.244C121.9 146.188 121.9 146.131 121.887 146.081H119C119 146.081 119 146.131 119 146.163C118.975 146.963 119.6 147.638 120.4 147.681V147.694ZM128.05 147.694C128.856 147.688 129.512 147.038 129.531 146.231C129.525 145.794 129.331 145.381 128.987 145.113C128.269 145.55 127.469 145.844 126.637 145.994C126.631 146.056 126.631 146.125 126.637 146.194C126.625 146.988 127.25 147.65 128.05 147.669V147.694ZM124.181 147.694C124.994 147.75 125.7 147.144 125.769 146.331C125.775 146.25 125.775 146.163 125.769 146.081H122.869C122.825 146.475 122.95 146.863 123.2 147.163C123.456 147.469 123.825 147.65 124.219 147.669L124.181 147.694ZM97.6186 147.694C98.0123 147.706 98.3873 147.556 98.6748 147.288C98.9561 147.019 99.1186 146.644 99.1186 146.25C99.1186 146.194 99.1186 146.144 99.1186 146.081H96.2186C96.2123 146.1 96.2123 146.119 96.2186 146.144C96.1873 146.95 96.8061 147.638 97.6186 147.681V147.694ZM93.7811 147.694C94.5936 147.7 95.2686 147.05 95.2811 146.231C95.2811 146.181 95.2811 146.131 95.2811 146.081H92.3811C92.3811 146.081 92.3811 146.131 92.3811 146.163C92.3623 146.55 92.4998 146.925 92.7623 147.213C93.0248 147.494 93.3936 147.669 93.7811 147.681V147.694ZM105.15 147.694C105.537 147.706 105.919 147.563 106.2 147.294C106.481 147.025 106.644 146.65 106.65 146.263C106.656 146.206 106.656 146.15 106.65 146.094H103.769C103.769 146.144 103.769 146.194 103.769 146.244C103.794 147 104.387 147.619 105.15 147.669V147.694ZM90.0373 147.694C90.8498 147.681 91.5061 147.025 91.5186 146.213C91.5248 146.169 91.5248 146.125 91.5186 146.081H88.6061C88.6061 146.144 88.6061 146.213 88.6061 146.269C88.6373 147.044 89.2623 147.669 90.0373 147.681V147.694ZM101.387 147.694C101.781 147.7 102.156 147.556 102.437 147.288C102.719 147.013 102.875 146.644 102.881 146.25C102.881 146.25 102.881 146.144 102.881 146.094H99.9873C99.9873 146.094 99.9873 146.144 99.9873 146.163C99.9686 146.963 100.594 147.631 101.387 147.669V147.694ZM86.2186 147.681C86.6123 147.688 86.9873 147.531 87.2686 147.256C87.5436 146.981 87.6998 146.606 87.6998 146.213C87.7061 146.163 87.7061 146.119 87.6998 146.069H84.7373C84.7373 146.069 84.7373 146.131 84.7373 146.163C84.7248 146.563 84.8811 146.95 85.1561 147.231C85.4373 147.519 85.8186 147.681 86.2186 147.681ZM82.3998 160.881C82.2498 160.875 82.1061 160.931 81.9998 161.044C81.8998 161.156 81.8498 161.3 81.8686 161.45C81.8686 161.794 82.1186 162.044 82.4498 161.969C82.7811 161.9 82.8561 161.669 82.9998 161.55C82.9373 161.094 82.7498 160.881 82.3998 160.881ZM86.2186 156.744C85.8936 156.719 85.5811 156.888 85.4186 157.169C85.2498 157.456 85.2623 157.806 85.4498 158.081C85.6311 158.35 85.9561 158.494 86.2811 158.45C86.7186 158.394 87.0373 158.013 87.0186 157.569C87.0061 157.131 86.6561 156.769 86.2186 156.744ZM86.2186 152.744C85.9186 152.738 85.6248 152.856 85.4123 153.075C85.1998 153.288 85.0811 153.581 85.0873 153.881C85.1436 154.456 85.6373 154.894 86.2186 154.881C86.7811 154.881 87.2498 154.444 87.2811 153.881C87.2936 153.588 87.1936 153.3 86.9936 153.081C86.7936 152.863 86.5123 152.738 86.2186 152.731V152.744ZM86.2186 160.881C85.8686 160.881 85.6186 161.094 85.6811 161.431C85.7373 161.769 85.9686 161.863 86.2373 162.219C86.4811 161.85 86.7061 161.65 86.7498 161.419C86.7873 161.194 86.5311 160.881 86.2186 160.881ZM86.2186 148.619C85.8623 148.619 85.5123 148.756 85.2623 149.013C85.0061 149.269 84.8686 149.613 84.8811 149.969C84.8748 150.325 85.0123 150.669 85.2686 150.913C85.5186 151.163 85.8623 151.294 86.2186 151.281C86.9373 151.281 87.5248 150.706 87.5373 149.994C87.5311 149.263 86.9436 148.675 86.2186 148.65V148.619ZM93.8311 152.7C93.5248 152.7 93.2311 152.825 93.0186 153.05C92.8123 153.275 92.7061 153.575 92.7311 153.881C92.7436 154.163 92.8686 154.425 93.0811 154.613C93.2936 154.8 93.5686 154.9 93.8498 154.881C94.4436 154.875 94.9248 154.388 94.9186 153.794C94.8873 153.213 94.4186 152.75 93.8373 152.731L93.8311 152.7ZM82.4186 156.7C82.0936 156.675 81.7748 156.844 81.6123 157.125C81.4436 157.406 81.4561 157.763 81.6373 158.038C81.8186 158.306 82.1436 158.456 82.4686 158.413C82.6936 158.4 82.8998 158.3 83.0498 158.138C83.1998 157.975 83.2811 157.756 83.2686 157.531C83.2373 157.088 82.8686 156.744 82.4311 156.744L82.4186 156.7ZM67.2186 148.65C66.5061 148.669 65.9311 149.244 65.9186 149.963C65.9123 150.313 66.0498 150.644 66.2936 150.894C66.5373 151.144 66.8686 151.281 67.2186 151.281C67.9311 151.256 68.4936 150.663 68.4873 149.95C68.4623 149.256 67.9123 148.694 67.2186 148.65ZM93.8186 160.65C93.5811 161.013 93.3311 161.219 93.2998 161.45C93.2686 161.681 93.4873 162 93.8373 162.019C94.1873 162.044 94.5186 161.719 94.4061 161.4C94.2998 161.081 94.0561 161 93.7811 160.663L93.8186 160.65ZM90.0686 160.869C89.7186 160.869 89.4686 161.119 89.5311 161.45C89.5873 161.781 89.8186 161.881 90.0686 162.244C90.3373 161.9 90.5811 161.713 90.6498 161.481C90.7186 161.25 90.3561 160.881 90.0311 160.881L90.0686 160.869ZM90.0686 148.75C89.3498 148.731 88.7498 149.288 88.7186 150C88.7123 150.363 88.8436 150.706 89.0936 150.969C89.3436 151.225 89.6873 151.375 90.0498 151.381C90.7623 151.363 91.3373 150.788 91.3498 150.069C91.3623 149.356 90.7936 148.775 90.0811 148.763L90.0686 148.75ZM93.8561 156.75C93.6186 156.738 93.3873 156.825 93.2186 156.994C93.0436 157.156 92.9498 157.381 92.9498 157.619C92.9561 158.081 93.3311 158.45 93.7873 158.463C94.2561 158.469 94.6436 158.106 94.6686 157.644C94.6748 157.181 94.3311 156.788 93.8686 156.744L93.8561 156.75ZM90.0498 152.75C89.7561 152.756 89.4748 152.875 89.2686 153.088C89.0686 153.3 88.9561 153.588 88.9686 153.881C88.9686 154.169 89.0873 154.444 89.2998 154.638C89.5186 154.825 89.8061 154.919 90.0873 154.881C90.6811 154.869 91.1561 154.381 91.1498 153.794C91.1248 153.206 90.6436 152.744 90.0561 152.731L90.0498 152.75ZM90.0498 156.75C89.7186 156.719 89.3998 156.869 89.2248 157.15C89.0498 157.431 89.0498 157.781 89.2248 158.063C89.3998 158.344 89.7186 158.494 90.0498 158.463C90.4873 158.413 90.8186 158.044 90.8186 157.606C90.8186 157.169 90.4873 156.8 90.0498 156.75ZM82.4498 148.663C81.7561 148.656 81.1748 149.188 81.1186 149.881C81.0623 150.375 81.2936 150.856 81.7123 151.131C82.1248 151.4 82.6623 151.419 83.0936 151.169C83.5248 150.919 83.7748 150.45 83.7498 149.95C83.7186 149.25 83.1623 148.688 82.4561 148.65L82.4498 148.663ZM71.0998 152.744C70.6873 152.688 70.2811 152.875 70.0498 153.219C69.8186 153.569 69.7998 154.013 70.0061 154.375C70.2123 154.738 70.6061 154.95 71.0186 154.931C71.5936 154.938 72.0811 154.506 72.1373 153.931C72.1811 153.319 71.7186 152.781 71.1061 152.731L71.0998 152.744ZM74.7686 156.744C74.3061 156.769 73.9498 157.15 73.9498 157.613C73.9498 157.85 74.0498 158.075 74.2248 158.238C74.3936 158.4 74.6311 158.481 74.8686 158.463C75.3248 158.413 75.6686 158.019 75.6561 157.563C75.6248 157.1 75.2436 156.738 74.7811 156.731L74.7686 156.744ZM74.2186 161.419C74.1873 161.569 74.2248 161.725 74.3248 161.844C74.4186 161.963 74.5686 162.031 74.7186 162.031C75.0561 162.031 75.4186 161.781 75.3373 161.45C75.2561 161.119 75.0498 161.019 74.7998 160.663C74.5561 161 74.2998 161.194 74.2186 161.419ZM70.9686 148.644C70.2561 148.688 69.6936 149.275 69.6811 149.994C69.6873 150.356 69.8436 150.7 70.1123 150.944C70.3811 151.188 70.7373 151.313 71.0998 151.294C71.4561 151.281 71.7936 151.119 72.0311 150.856C72.2686 150.588 72.3873 150.238 72.3561 149.881C72.3061 149.175 71.7061 148.631 70.9998 148.644H70.9686ZM70.4311 161.444C70.4311 161.781 70.7498 162.119 71.0561 162.013C71.3686 161.9 71.4686 161.694 71.8061 161.413C71.4373 161.169 71.2373 160.931 70.9998 160.894C70.7561 160.85 70.4873 161.1 70.4561 161.444H70.4311ZM71.0061 156.744C70.5498 156.75 70.1748 157.119 70.1561 157.581C70.1248 157.906 70.2748 158.225 70.5561 158.4C70.8373 158.575 71.1936 158.575 71.4686 158.4C71.7498 158.225 71.9061 157.906 71.8686 157.581C71.8561 157.125 71.4936 156.763 71.0373 156.744H71.0061ZM78.5811 156.744C78.1123 156.725 77.7186 157.075 77.6873 157.544C77.6748 157.781 77.7561 158.013 77.9186 158.188C78.0811 158.356 78.3123 158.456 78.5498 158.45C79.0123 158.444 79.3873 158.075 79.4061 157.613C79.3998 157.163 79.0561 156.788 78.6061 156.744H78.5811ZM74.7561 152.744C74.1623 152.756 73.6936 153.25 73.6998 153.844C73.7061 154.125 73.8248 154.394 74.0248 154.588C74.2311 154.781 74.5061 154.888 74.7873 154.881C75.3686 154.894 75.8561 154.456 75.9061 153.881C75.9186 153.581 75.7998 153.288 75.5936 153.069C75.3811 152.856 75.0936 152.731 74.7873 152.731L74.7561 152.744ZM78.5811 148.663C77.8811 148.656 77.2936 149.188 77.2186 149.881C77.1998 150.6 77.7561 151.2 78.4686 151.244C78.9623 151.3 79.4436 151.075 79.7186 150.669C79.9936 150.256 80.0186 149.725 79.7811 149.288C79.5373 148.856 79.0748 148.594 78.5811 148.613V148.663ZM78.5061 152.744C77.9373 152.788 77.4936 153.275 77.5061 153.85C77.5186 154.425 77.9936 154.888 78.5686 154.881C79.1561 154.888 79.6498 154.419 79.6686 153.831C79.6498 153.219 79.1498 152.738 78.5373 152.731L78.5061 152.744ZM78.5561 160.919C78.2061 160.919 77.9561 161.119 78.0186 161.463C78.0811 161.8 78.2873 161.894 78.5311 162.263C78.7998 161.9 79.0373 161.7 79.0873 161.469C79.1373 161.244 78.9311 160.881 78.5873 160.881L78.5561 160.919ZM74.8186 148.65C74.0998 148.656 73.5123 149.225 73.4873 149.944C73.4811 150.3 73.6186 150.65 73.8748 150.9C74.1311 151.156 74.4811 151.294 74.8373 151.281C75.5561 151.269 76.1311 150.681 76.1186 149.963C76.1061 149.244 75.5311 148.669 74.8186 148.65ZM62.7186 47.05C62.3561 47.2938 62.0248 47.5688 61.7186 47.8688L62.0686 46.3C62.1873 46.625 62.4186 46.8875 62.7186 47.05ZM106.531 41.8813C106.481 41.1813 105.919 40.6375 105.219 40.6125C104.856 40.6188 104.519 40.7688 104.275 41.0313C104.031 41.3 103.906 41.65 103.931 42.0125C103.962 42.7 104.531 43.2438 105.219 43.2438C105.575 43.2375 105.912 43.0875 106.156 42.8313C106.4 42.5813 106.537 42.2375 106.531 41.8813ZM106.287 38.1625C106.294 37.875 106.181 37.6 105.981 37.4C105.775 37.1938 105.506 37.0813 105.219 37.0813C104.919 37.075 104.625 37.1875 104.412 37.4C104.194 37.6188 104.081 37.9063 104.087 38.2125C104.119 38.8125 104.619 39.275 105.219 39.2688C105.812 39.2563 106.281 38.775 106.287 38.1813V38.1625ZM106.056 34.4188C106.069 34.1813 105.981 33.95 105.812 33.7813C105.65 33.6125 105.419 33.525 105.181 33.5313C104.712 33.5438 104.337 33.925 104.337 34.3938C104.344 34.8625 104.719 35.2438 105.187 35.25C105.656 35.2563 106.044 34.8875 106.056 34.4188ZM109.919 34.4188C109.912 33.9563 109.544 33.575 109.081 33.5625C108.75 33.525 108.431 33.6813 108.256 33.9625C108.081 34.2375 108.081 34.5938 108.256 34.875C108.431 35.15 108.75 35.3063 109.081 35.2688C109.544 35.25 109.906 34.875 109.919 34.4125V34.4188ZM110.156 38.1625C110.144 37.5688 109.65 37.0938 109.056 37.1C108.756 37.0938 108.462 37.2125 108.256 37.4313C108.05 37.65 107.95 37.95 107.981 38.25C108.019 38.8375 108.525 39.2813 109.106 39.25C109.687 39.2125 110.144 38.7313 110.156 38.15V38.1625ZM105.75 30.5625C105.769 30.4125 105.719 30.2625 105.612 30.15C105.506 30.0438 105.356 29.9875 105.206 30C104.856 30 104.606 30.2125 104.656 30.5438C104.706 30.8688 104.931 30.9688 105.037 31.1188C105.537 31.0813 105.75 30.8813 105.75 30.55V30.5625ZM109.031 31.0938C109.256 31.0938 109.469 30.8313 109.85 30.6C109.5 30.3188 109.319 30.0688 109.087 30.0125C108.856 29.95 108.537 30.1813 108.519 30.5188C108.5 30.8625 108.687 31.1188 109.031 31.0813V31.0938ZM98.5311 34.4C98.5248 33.9375 98.1436 33.5625 97.6811 33.5625C97.4436 33.5625 97.2123 33.6563 97.0498 33.8313C96.8873 34 96.7998 34.2313 96.8061 34.4688C96.8561 34.9313 97.2436 35.2813 97.7061 35.2813C98.1748 35.2438 98.5311 34.8563 98.5311 34.3938V34.4ZM110.369 41.8813C110.356 41.1688 109.781 40.5875 109.069 40.5688C108.344 40.5813 107.756 41.1563 107.731 41.8813C107.719 42.6 108.281 43.1938 109 43.2188C109.362 43.2375 109.712 43.1063 109.975 42.85C110.237 42.5938 110.375 42.2438 110.369 41.8813ZM98.2186 30.55C98.2311 30.4 98.1811 30.2563 98.0811 30.1438C97.9748 30.0375 97.8311 29.9813 97.6811 29.9938C97.3311 29.9938 97.0811 30.2 97.1311 30.5313C97.1811 30.8625 97.3998 30.9625 97.5061 31.1125C97.9998 31.0813 98.2186 30.8813 98.2186 30.55ZM98.7561 38.1188C98.7436 37.8375 98.6186 37.575 98.4061 37.3875C98.1936 37.2 97.9186 37.1063 97.6373 37.1188C97.0436 37.125 96.5623 37.6125 96.5686 38.2125C96.5748 38.5125 96.7061 38.7938 96.9248 39C97.1436 39.2063 97.4373 39.3125 97.7373 39.3C98.0311 39.2813 98.2998 39.1438 98.4936 38.925C98.6873 38.7 98.7811 38.4125 98.7561 38.1188ZM98.9998 41.8813C98.9561 41.1625 98.3686 40.6063 97.6498 40.6C97.2873 40.6125 96.9498 40.7688 96.7061 41.0313C96.4623 41.3 96.3373 41.65 96.3561 42.0125C96.4061 42.725 97.0248 43.2688 97.7373 43.2313C98.4561 43.1938 99.0123 42.6 98.9998 41.8813ZM102.506 38.1438C102.512 37.8563 102.4 37.5875 102.2 37.3875C101.994 37.1875 101.725 37.075 101.437 37.0813C100.844 37.075 100.356 37.55 100.337 38.1438C100.344 38.7625 100.85 39.2625 101.469 39.2625C102.056 39.2313 102.512 38.7375 102.506 38.15V38.1438ZM101.969 30.5438C101.969 30.3125 101.687 30.1125 101.437 29.7438C101.181 30.1125 100.937 30.3 100.887 30.5313C100.837 30.7625 101.087 31.0688 101.431 31.0813C101.769 31.0938 102.019 30.8813 101.969 30.55V30.5438ZM102.756 41.8813C102.731 41.1688 102.162 40.6 101.45 40.5688C101.087 40.575 100.744 40.7188 100.494 40.9813C100.25 41.2438 100.112 41.5938 100.131 41.95C100.156 42.6625 100.756 43.225 101.469 43.2C102.187 43.1875 102.762 42.6 102.756 41.8813ZM102.287 34.4125C102.306 34.0625 102.112 33.7313 101.8 33.5813C101.481 33.4313 101.106 33.4938 100.85 33.7313C100.587 33.9688 100.5 34.3375 100.625 34.6625C100.75 34.9938 101.056 35.2125 101.406 35.2188C101.856 35.2313 102.237 34.8938 102.287 34.45V34.4125ZM124.856 30.55C124.956 30.2313 124.631 29.9125 124.287 29.9313C123.95 29.95 123.7 30.1688 123.737 30.4938C123.781 30.8125 124.006 30.9438 124.256 31.3C124.537 31.0125 124.781 30.8813 124.856 30.5938V30.55ZM121.769 41.8938C121.75 41.175 121.175 40.6 120.456 40.5688C120.1 40.5688 119.75 40.7188 119.506 40.9813C119.256 41.2375 119.125 41.5938 119.137 41.95C119.162 42.6625 119.756 43.225 120.469 43.2C121.169 43.1938 121.744 42.6313 121.769 41.9313V41.8938ZM125.156 34.3938C125.162 33.925 124.806 33.5375 124.337 33.5125C124.1 33.5 123.869 33.5813 123.7 33.75C123.531 33.9125 123.437 34.1438 123.45 34.3813C123.494 34.8188 123.862 35.15 124.306 35.15C124.744 35.15 125.112 34.8188 125.156 34.3813V34.3938ZM121.531 38.0625C121.512 37.775 121.381 37.5125 121.169 37.3188C120.956 37.1313 120.675 37.0375 120.387 37.0625C119.812 37.1063 119.369 37.5938 119.387 38.1688C119.412 38.7625 119.9 39.2313 120.487 39.2438C121.087 39.2063 121.55 38.7 121.531 38.1V38.0625ZM125.4 38.15C125.412 37.5563 124.937 37.0625 124.337 37.05C124.056 37.0188 123.769 37.1063 123.55 37.3C123.337 37.4875 123.219 37.7625 123.219 38.05C123.2 38.35 123.306 38.65 123.512 38.8688C123.719 39.0875 124.006 39.2125 124.306 39.2125C124.881 39.2 125.35 38.7563 125.4 38.1938V38.15ZM95.1186 41.8813C95.0998 41.1688 94.5123 40.5938 93.7998 40.5938C93.0936 40.6188 92.5311 41.1813 92.4873 41.8813C92.4936 42.2438 92.6373 42.5875 92.8998 42.8313C93.1623 43.0813 93.5061 43.2125 93.8686 43.2C94.5748 43.1813 95.1373 42.5875 95.1186 41.8813ZM112.787 31.0813C113.031 31.0813 113.237 30.8188 113.606 30.5938C113.269 30.3125 113.081 30.0625 112.85 30C112.619 29.9438 112.3 30.1688 112.281 30.5125C112.256 30.85 112.456 31.1188 112.787 31.0813ZM125.606 41.9688C125.619 41.6125 125.481 41.2625 125.225 41.0063C124.975 40.75 124.631 40.6063 124.269 40.6125C123.55 40.65 122.987 41.2375 122.981 41.95C123.037 42.6313 123.606 43.1563 124.294 43.1563C124.981 43.1563 125.55 42.6313 125.606 41.95V41.9688ZM121.3 34.4C121.3 33.9375 120.925 33.5563 120.456 33.55C120 33.55 119.612 33.9 119.581 34.3625C119.569 34.825 119.919 35.2125 120.381 35.2625C120.619 35.275 120.85 35.1938 121.025 35.0313C121.194 34.8688 121.294 34.6375 121.3 34.4ZM114.131 41.8813C114.094 41.1688 113.506 40.6063 112.787 40.6125C112.075 40.65 111.506 41.2375 111.5 41.95C111.506 42.3125 111.662 42.65 111.925 42.8938C112.187 43.1313 112.544 43.2625 112.9 43.2438C113.612 43.2063 114.162 42.5938 114.131 41.8813ZM113.931 38.1938C113.931 37.5938 113.456 37.1063 112.856 37.0938C112.575 37.0563 112.287 37.1438 112.075 37.3375C111.856 37.5313 111.737 37.8063 111.737 38.0938C111.725 38.3938 111.831 38.6875 112.037 38.9063C112.25 39.125 112.537 39.2438 112.837 39.2438C113.419 39.225 113.894 38.7688 113.931 38.1938ZM116.706 31.1C116.937 31.1 117.131 30.8 117.469 30.5313C117.119 30.2813 116.919 30.0438 116.681 29.9813C116.437 29.9188 116.056 30.2625 116.1 30.6C116.137 30.9438 116.387 31.1688 116.706 31.1ZM113.706 34.45C113.731 33.9875 113.381 33.5875 112.919 33.55C112.681 33.5313 112.444 33.6125 112.275 33.775C112.1 33.9375 112 34.1625 112 34.4C112.044 34.8375 112.412 35.1688 112.856 35.1688C113.294 35.1688 113.662 34.8375 113.706 34.4V34.45ZM117.556 34.45C117.562 34.2125 117.469 33.9875 117.294 33.8188C117.119 33.6563 116.887 33.575 116.65 33.5938C116.212 33.6563 115.894 34.0375 115.912 34.475C115.931 34.9188 116.275 35.275 116.719 35.3C116.944 35.2938 117.156 35.1938 117.306 35.025C117.462 34.8563 117.537 34.6375 117.531 34.4125L117.556 34.45ZM118.031 41.9938C118.019 41.275 117.456 40.6875 116.737 40.65C116.025 40.625 115.425 41.1688 115.369 41.8813C115.337 42.5938 115.887 43.2063 116.6 43.2438C116.956 43.2625 117.306 43.1313 117.569 42.8938C117.831 42.65 117.987 42.3125 118 41.95L118.031 41.9938ZM117.787 38.2438C117.819 37.9563 117.731 37.675 117.537 37.4625C117.344 37.25 117.075 37.1313 116.787 37.1313C116.487 37.1125 116.194 37.225 115.975 37.4313C115.756 37.6375 115.637 37.9313 115.637 38.2313C115.662 38.825 116.137 39.2938 116.731 39.3125C117.312 39.2813 117.769 38.7875 117.756 38.2L117.787 38.2438ZM120.5 31.1438C120.731 31.1438 120.919 30.8438 121.269 30.5688C120.906 30.3188 120.719 30.0813 120.481 30.0188C120.237 29.9625 119.856 30.3 119.9 30.6438C119.937 30.9813 120.15 31.1688 120.469 31.1L120.5 31.1438ZM83.4998 38.2C83.5186 37.9125 83.4123 37.625 83.2061 37.4188C82.9998 37.2125 82.7123 37.1063 82.4186 37.1313C81.8436 37.1125 81.3561 37.5563 81.3186 38.1313C81.3123 38.4313 81.4311 38.725 81.6498 38.9375C81.8623 39.1563 82.1561 39.2688 82.4561 39.2625C83.0498 39.2438 83.5186 38.7563 83.5061 38.1625L83.4998 38.2ZM69.5873 45.7438C69.5811 45.8063 69.5811 45.8688 69.5873 45.9313H72.4811C72.4811 45.9313 72.4811 45.8438 72.4811 45.8C72.4686 44.9875 71.8123 44.3313 70.9998 44.3188C70.2248 44.35 69.6123 44.9688 69.5873 45.7438ZM80.9686 45.7438C80.9686 45.7938 80.9686 45.8313 80.9686 45.8813H83.8498C83.8561 45.8188 83.8561 45.7563 83.8498 45.6938C83.8311 44.9125 83.2061 44.2938 82.4311 44.2813C81.6123 44.3 80.9561 44.975 80.9686 45.7938V45.7438ZM63.4561 40.7188C63.4061 40.7188 63.3561 40.7188 63.3061 40.7188L62.7686 43.1438C62.9686 43.2625 63.1936 43.3313 63.4311 43.3313C64.1436 43.3125 64.7248 42.7375 64.7498 42.0188C64.7311 41.3125 64.1686 40.7438 63.4561 40.7188ZM63.4561 44.3313C63.0811 44.3375 62.7248 44.4875 62.4561 44.75L62.1061 46.3C62.2311 46.625 62.4623 46.8938 62.7686 47.05C63.4123 46.625 64.1248 46.3125 64.8811 46.1313C64.8873 46.0313 64.8873 45.925 64.8811 45.8188C64.8873 45.4313 64.7436 45.05 64.4686 44.7688C64.1936 44.4875 63.8186 44.3313 63.4311 44.3313H63.4561ZM73.3873 45.7938C73.3873 45.8438 73.3873 45.8813 73.3873 45.9313H76.2186C76.2248 45.8688 76.2248 45.8063 76.2186 45.7438C76.1811 44.925 75.4936 44.3 74.6811 44.3313C73.9248 44.3938 73.3436 45.0313 73.3561 45.7938H73.3873ZM77.1561 45.85C77.1561 45.85 77.1561 45.9 77.1561 45.9313H80.0186C80.0248 45.875 80.0248 45.825 80.0186 45.7688C79.9936 44.9625 79.3248 44.325 78.5186 44.3313C78.1248 44.3438 77.7561 44.5188 77.4936 44.8125C77.2311 45.1063 77.0998 45.4875 77.1311 45.8813L77.1561 45.85ZM65.7186 45.7625C65.7123 45.8313 65.7123 45.9 65.7186 45.9688C65.9561 45.9563 66.1998 45.9563 66.4373 45.9688H68.6061C68.6061 45.9688 68.6061 45.8688 68.6061 45.8188C68.6311 45.025 68.0123 44.3563 67.2186 44.3188C66.4123 44.3125 65.7436 44.9563 65.7186 45.7625ZM68.2686 38.2438C68.2936 37.9563 68.1998 37.6688 68.0123 37.4563C67.8248 37.2375 67.5561 37.1063 67.2686 37.0938C66.9686 37.0625 66.6686 37.1625 66.4498 37.3625C66.2248 37.5625 66.0936 37.85 66.0873 38.15C66.0873 38.725 66.5186 39.2125 67.0873 39.2688C67.3811 39.3 67.6748 39.2063 67.8998 39.0125C68.1248 38.8125 68.2561 38.5375 68.2686 38.2438ZM67.7498 30.3688C67.5873 30.2688 67.3873 30.0313 67.1561 30C66.9311 29.9688 66.6186 30.2188 66.6311 30.5625C66.6186 30.7125 66.6811 30.8625 66.7936 30.9625C66.9061 31.0625 67.0561 31.1125 67.2061 31.0938C67.5561 31.0813 67.7311 30.8813 67.7498 30.3688ZM68.0373 34.4313C68.0561 33.9688 67.6998 33.5813 67.2373 33.55C66.9123 33.5125 66.5936 33.6625 66.4123 33.9375C66.2373 34.2188 66.2311 34.5688 66.3998 34.85C66.5748 35.1313 66.8936 35.2938 67.2186 35.2625C67.6686 35.2438 68.0311 34.8813 68.0373 34.4313ZM64.0373 37.3188L63.6061 39.2313C64.1186 39.1125 64.4748 38.6563 64.4686 38.1313C64.4748 37.8125 64.3311 37.5125 64.0811 37.3188H64.0373ZM128.087 39.3188C128.144 39.3313 128.2 39.3313 128.256 39.3188L127.787 37.2313C127.262 37.3313 126.894 37.8125 126.937 38.35C127.031 38.925 127.55 39.325 128.131 39.2688L128.087 39.3188ZM127.219 34.4813C127.231 34.5688 127.256 34.65 127.3 34.7188L127.231 34.4313C127.225 34.45 127.219 34.4625 127.219 34.4813ZM129.1 42.7313L128.656 40.7313C128.481 40.6375 128.287 40.5813 128.087 40.5688C127.337 40.5813 126.737 41.2 126.75 41.95C126.787 42.6688 127.394 43.225 128.106 43.2C128.487 43.2 128.85 43.0313 129.087 42.7313H129.1ZM115.219 45.7938C115.219 45.8438 115.219 45.8813 115.219 45.9313H118.119C118.119 45.9313 118.119 45.8688 118.119 45.8313C118.131 45.4375 117.987 45.0625 117.719 44.775C117.45 44.4938 117.081 44.3313 116.687 44.3188C115.881 44.3313 115.231 44.9813 115.219 45.7938ZM111.381 45.8438C111.381 45.8438 111.381 45.9 111.381 45.9313H114.281C114.281 45.9313 114.281 45.8313 114.281 45.7813C114.256 44.9688 113.594 44.3188 112.781 44.3188C112.381 44.3375 112.012 44.5125 111.744 44.8063C111.481 45.1 111.344 45.4875 111.369 45.8813L111.381 45.8438ZM107.619 45.7813C107.612 45.8313 107.612 45.8813 107.619 45.9313H110.5C110.5 45.8688 110.5 45.8188 110.5 45.7625C110.469 44.95 109.787 44.3125 108.981 44.3313C108.206 44.375 107.606 45.0125 107.606 45.7813H107.619ZM118.987 45.85C118.987 45.85 118.987 45.9 118.987 45.9313H121.881C121.887 45.8813 121.887 45.825 121.881 45.7688C121.875 45.3813 121.719 45.0063 121.437 44.7375C121.156 44.4625 120.781 44.3125 120.387 44.3188C119.994 44.3375 119.625 44.5125 119.356 44.8063C119.094 45.1 118.956 45.4875 118.981 45.8813L118.987 45.85ZM126.631 45.85C126.625 45.9188 126.625 45.9875 126.631 46.05C127.462 46.1938 128.256 46.4938 128.981 46.9313C129.319 46.6563 129.519 46.25 129.519 45.8125C129.5 45.0063 128.844 44.3563 128.037 44.35C127.644 44.3563 127.269 44.525 127.006 44.8125C126.737 45.1063 126.6 45.4875 126.619 45.8813L126.631 45.85ZM122.869 45.95H125.769C125.775 45.8688 125.775 45.7875 125.769 45.7C125.706 44.9 125.019 44.2938 124.219 44.3313C123.819 44.35 123.45 44.5313 123.194 44.8375C122.937 45.1375 122.812 45.5375 122.856 45.9313L122.869 45.95ZM96.2186 45.8813C96.2123 45.9 96.2123 45.9188 96.2186 45.9438H99.1061C99.1061 45.8813 99.1061 45.8313 99.1061 45.7688C99.1061 45.3813 98.9436 45.0063 98.6623 44.7375C98.3811 44.4625 97.9998 44.3188 97.6061 44.3313C96.7998 44.3813 96.1811 45.0688 96.2186 45.8813ZM92.3811 45.8813C92.3811 45.8813 92.3811 45.9313 92.3811 45.9625H95.2686C95.2686 45.9625 95.2686 45.8625 95.2686 45.8125C95.2561 44.9938 94.5873 44.3375 93.7686 44.35C93.3811 44.3688 93.0123 44.5375 92.7498 44.825C92.4873 45.1125 92.3498 45.4938 92.3686 45.8813H92.3811ZM103.75 45.8125C103.75 45.8625 103.75 45.9125 103.75 45.9625H106.631C106.631 45.9063 106.631 45.85 106.631 45.7938C106.625 45.4 106.462 45.0313 106.181 44.7625C105.9 44.4938 105.519 44.35 105.131 44.3625C104.369 44.4063 103.769 45.0188 103.737 45.7813L103.75 45.8125ZM88.6061 45.8125C88.6061 45.8688 88.6061 45.9438 88.6061 46H91.4998C91.4998 45.9563 91.4998 45.9125 91.4998 45.8688C91.4873 45.0563 90.8311 44.4 90.0186 44.3938C89.2686 44.4125 88.6561 44.9938 88.5998 45.7438L88.6061 45.8125ZM99.9811 45.8813C99.9811 45.8813 99.9811 45.8813 99.9811 45.95H102.856C102.856 45.95 102.856 45.8438 102.856 45.7938C102.856 45.4 102.694 45.0313 102.419 44.7563C102.137 44.4875 101.756 44.3375 101.369 44.35C100.569 44.4 99.9498 45.0813 99.9811 45.8813ZM84.7311 45.8813C84.7311 45.8813 84.7311 45.9438 84.7311 45.9688H87.6186C87.6248 45.925 87.6248 45.875 87.6186 45.8313C87.6498 45.0313 87.0186 44.3563 86.2186 44.3188C85.8123 44.3188 85.4186 44.4813 85.1373 44.7813C84.8561 45.075 84.7061 45.475 84.7311 45.8813ZM82.9998 30.4188C82.8561 30.3 82.6686 30.05 82.4498 30C82.2311 29.95 81.8873 30.1813 81.8686 30.5188C81.8498 30.6688 81.8998 30.8188 81.9998 30.9313C82.1061 31.0375 82.2498 31.1 82.3998 31.0938C82.7498 31.1125 82.9373 30.8813 82.9998 30.4188ZM86.9998 34.4188C87.0123 33.9625 86.6561 33.575 86.1998 33.5438C85.8498 33.5188 85.5186 33.7063 85.3623 34.025C85.2123 34.3375 85.2686 34.7188 85.4998 34.975C85.7373 35.2375 86.1123 35.325 86.4373 35.2063C86.7686 35.0813 86.9873 34.775 86.9998 34.4188ZM87.2311 38.1625C87.2498 37.8813 87.1498 37.6063 86.9561 37.4063C86.7686 37.2 86.4998 37.0875 86.2186 37.0938C85.6373 37.0813 85.1498 37.5125 85.0998 38.0938C85.0811 38.4 85.1936 38.7 85.4061 38.925C85.6186 39.1438 85.9123 39.2688 86.2186 39.2688C86.8123 39.2563 87.2873 38.7625 87.2811 38.1688L87.2311 38.1625ZM86.6686 30.5438C86.6686 30.3125 86.3998 30.1125 86.1561 29.7438C85.8873 30.1 85.6498 30.3 85.5998 30.5313C85.5498 30.7625 85.7873 31.0688 86.1373 31.0813C86.4873 31.0938 86.7811 30.8813 86.7186 30.55L86.6686 30.5438ZM87.4686 42C87.4498 41.3125 86.9061 40.7563 86.2186 40.7188C85.8748 40.7188 85.5436 40.85 85.2998 41.0875C85.0498 41.3313 84.9123 41.6563 84.9061 42C84.8998 42.3563 85.0373 42.6938 85.2811 42.95C85.5248 43.2063 85.8623 43.35 86.2186 43.35C86.9373 43.3188 87.5061 42.7313 87.5186 42.0125L87.4686 42ZM94.8686 38.1688C94.8748 37.575 94.3936 37.0875 93.7998 37.0813C93.5186 37.0625 93.2436 37.1625 93.0311 37.35C92.8186 37.5375 92.6936 37.8 92.6811 38.0813C92.6623 38.3813 92.7748 38.675 92.9873 38.8938C93.1936 39.1125 93.4873 39.2313 93.7873 39.2313C94.3873 39.2375 94.8811 38.775 94.9186 38.1813L94.8686 38.1688ZM83.2811 34.4313C83.2873 34.2063 83.2123 33.9875 83.0623 33.825C82.9123 33.6625 82.6998 33.5625 82.4811 33.55C82.1498 33.5063 81.8311 33.6563 81.6498 33.925C81.4686 34.2 81.4561 34.5563 81.6248 34.8375C81.7873 35.1188 82.0998 35.2875 82.4311 35.2625C82.8873 35.2625 83.2686 34.8938 83.2811 34.4313ZM68.5061 42.05C68.5123 41.3313 67.9373 40.7375 67.2186 40.7188C66.8623 40.7063 66.5123 40.8375 66.2561 41.0875C65.9936 41.3375 65.8498 41.6813 65.8561 42.0438C65.8623 42.3938 66.0123 42.7313 66.2686 42.9813C66.5186 43.225 66.8623 43.3563 67.2186 43.35C67.9186 43.3188 68.4811 42.75 68.5061 42.05ZM94.3686 30.5938C94.4811 30.2688 94.1373 29.95 93.7998 29.9688C93.4561 29.9938 93.2061 30.2188 93.2561 30.5438C93.3061 30.8625 93.5373 30.9813 93.7811 31.3438C94.0561 31 94.2998 30.8188 94.3686 30.5938ZM90.6061 30.5125C90.5373 30.2813 90.2998 30.0938 90.0311 29.75C89.7811 30.1125 89.5311 30.3125 89.4873 30.55C89.4498 30.7938 89.6811 31.0938 90.0311 31.1188C90.3811 31.15 90.7061 30.8813 90.6061 30.5125ZM91.3561 41.8813C91.3498 41.1688 90.7748 40.5875 90.0561 40.5688C89.6998 40.575 89.3561 40.725 89.1061 40.9813C88.8561 41.2438 88.7186 41.5938 88.7311 41.95C88.7623 42.6688 89.3623 43.225 90.0811 43.2C90.4248 43.2 90.7561 43.0563 90.9936 42.8063C91.2373 42.5625 91.3686 42.225 91.3561 41.8813ZM94.6811 34.3313C94.6498 33.8688 94.2623 33.5063 93.7998 33.5125C93.4686 33.4938 93.1623 33.6625 92.9998 33.9438C92.8373 34.2313 92.8498 34.5813 93.0373 34.8563C93.2186 35.125 93.5436 35.2688 93.8686 35.2188C94.3123 35.1813 94.6623 34.8188 94.6811 34.3688V34.3313ZM91.1498 38.15C91.1623 37.5563 90.6873 37.0625 90.0873 37.05C89.8061 37.0188 89.5186 37.1063 89.2998 37.3C89.0873 37.4875 88.9686 37.7625 88.9686 38.05C88.9498 38.35 89.0623 38.6438 89.2686 38.8625C89.4748 39.0813 89.7561 39.2 90.0561 39.2C90.6311 39.2 91.0998 38.7625 91.1498 38.1938V38.15ZM90.9061 34.3813C90.9123 33.9188 90.5498 33.5375 90.0873 33.5125C89.7623 33.475 89.4436 33.6313 89.2686 33.9125C89.0936 34.1875 89.0936 34.5438 89.2686 34.825C89.4436 35.1 89.7623 35.2563 90.0873 35.2188C90.5248 35.2 90.8748 34.8563 90.9061 34.4188V34.3813ZM83.7498 41.9688C83.7748 41.475 83.5248 41.0063 83.0936 40.7563C82.6623 40.5063 82.1248 40.5188 81.7123 40.7938C81.2936 41.0625 81.0623 41.5438 81.1186 42.0438C81.1498 42.7563 81.7436 43.3188 82.4561 43.3125C83.1623 43.275 83.7186 42.7125 83.7498 42.0125V41.9688ZM72.1498 38.0938C72.0936 37.5125 71.6061 37.0813 71.0311 37.0938C70.7248 37.0875 70.4373 37.2188 70.2373 37.4375C70.0311 37.6625 69.9311 37.9625 69.9561 38.2625C70.0061 38.85 70.5186 39.2938 71.1061 39.2625C71.6998 39.2125 72.1498 38.7188 72.1498 38.1313V38.0938ZM75.6686 34.4125C75.6811 33.95 75.3373 33.5563 74.8811 33.5125C74.6436 33.4938 74.4061 33.575 74.2311 33.7313C74.0561 33.8938 73.9561 34.125 73.9561 34.3625C73.9561 34.825 74.3186 35.2063 74.7811 35.2313C75.2311 35.2313 75.6061 34.9 75.6686 34.45V34.4125ZM74.8311 31.3C75.0811 30.9438 75.3061 30.75 75.3686 30.5125C75.4311 30.2688 75.0873 29.8938 74.7498 29.9313C74.5936 29.9313 74.4498 30 74.3561 30.1188C74.2561 30.2375 74.2186 30.3938 74.2498 30.5438C74.2998 30.8125 74.5561 31 74.8311 31.3438V31.3ZM72.3561 42.0938C72.3998 41.3688 71.8498 40.7563 71.1311 40.7125C70.7686 40.6875 70.4123 40.8125 70.1436 41.0625C69.8748 41.3063 69.7186 41.65 69.7061 42.0125C69.7248 42.725 70.2811 43.3125 70.9998 43.3625C71.7186 43.375 72.3186 42.8125 72.3561 42.0938ZM71.0311 31.0938C71.2686 31.0938 71.4686 30.8125 71.8373 30.5688C71.4998 30.2938 71.3311 30.05 71.0873 29.9688C70.8498 29.8938 70.4373 30.2 70.4561 30.5438C70.4811 30.8813 70.7061 31.1625 71.0311 31.1125V31.0938ZM71.8998 34.4C71.9311 34.075 71.7811 33.7563 71.4998 33.5813C71.2186 33.4063 70.8686 33.4063 70.5873 33.5813C70.3061 33.7563 70.1561 34.075 70.1873 34.4C70.2373 34.8375 70.6061 35.1688 71.0436 35.1688C71.4811 35.1688 71.8498 34.8375 71.8998 34.4ZM79.4373 34.4C79.4186 33.9375 79.0436 33.5688 78.5811 33.5625C78.3436 33.5563 78.1123 33.6563 77.9498 33.825C77.7873 34 77.6998 34.2313 77.7186 34.4688C77.7498 34.9375 78.1436 35.2875 78.6061 35.2688C79.0748 35.2375 79.4373 34.8563 79.4373 34.3938V34.4ZM75.9061 38.1438C75.8623 37.5625 75.3686 37.125 74.7873 37.1438C74.4998 37.125 74.2123 37.2313 74.0123 37.4375C73.8061 37.6438 73.7061 37.9313 73.7311 38.2188C73.7248 38.8125 74.1936 39.3063 74.7873 39.3188C75.0998 39.3188 75.3936 39.1938 75.6061 38.9688C75.8186 38.7438 75.9248 38.4375 75.9061 38.1313V38.1438ZM79.9061 42.0313C79.9123 41.675 79.7623 41.3313 79.4998 41.0813C79.2373 40.8375 78.8873 40.7063 78.5311 40.7313C77.7936 40.7438 77.2061 41.3438 77.2186 42.0813C77.2686 42.8 77.8623 43.35 78.5811 43.35C78.9248 43.35 79.2623 43.2063 79.5061 42.9563C79.7498 42.7063 79.8811 42.3688 79.8811 42.0188L79.9061 42.0313ZM79.6998 38.15C79.6498 37.5813 79.1686 37.1438 78.5998 37.15C78.3123 37.1438 78.0373 37.2563 77.8373 37.4563C77.6311 37.6625 77.5248 37.9375 77.5311 38.2188C77.5186 38.8 77.9561 39.2813 78.5311 39.3313C78.8373 39.3313 79.1373 39.2063 79.3498 38.9813C79.5686 38.7563 79.6811 38.45 79.6686 38.1438L79.6998 38.15ZM79.1498 30.55C79.0998 30.3188 78.8561 30.1188 78.5873 29.7625C78.3498 30.1313 78.1061 30.3313 78.0811 30.5625C78.0498 30.7938 78.2686 31.1125 78.6186 31.1C78.9686 31.0938 79.2186 30.8813 79.1186 30.5438L79.1498 30.55ZM76.1498 42.05C76.1936 41.5563 75.9498 41.075 75.5248 40.8125C75.0998 40.55 74.5686 40.55 74.1436 40.8125C73.7186 41.075 73.4748 41.5563 73.5186 42.05C73.5436 42.7688 74.1311 43.3375 74.8498 43.3438C75.5498 43.3125 76.1061 42.7438 76.1186 42.0438L76.1498 42.05Z" fill="#CCCCCC"/>
<path d="M124.369 87.9313C124.363 88.375 124.088 88.7688 123.675 88.925C123.263 89.0875 122.794 88.9813 122.494 88.6625C122.188 88.3438 122.107 87.875 122.282 87.4688C122.463 87.0625 122.869 86.8062 123.307 86.8188C123.6 86.8188 123.882 86.9375 124.082 87.1438C124.282 87.3563 124.388 87.6437 124.369 87.9313ZM123.269 60.9313C122.975 60.9063 122.682 61.0188 122.475 61.2313C122.269 61.4437 122.169 61.7375 122.2 62.0313C122.25 62.5875 122.725 63.0188 123.282 63.0188C123.844 63.0188 124.313 62.5875 124.369 62.0313C124.4 61.725 124.294 61.425 124.082 61.2063C123.869 60.9813 123.575 60.8625 123.269 60.8813V60.9313ZM123.269 104.144C122.825 104.138 122.425 104.4 122.257 104.813C122.082 105.219 122.175 105.687 122.488 106C122.8 106.312 123.275 106.406 123.682 106.238C124.088 106.063 124.35 105.662 124.35 105.219C124.363 104.931 124.257 104.65 124.057 104.438C123.857 104.231 123.582 104.113 123.288 104.113L123.269 104.144ZM122.219 53.3313C122.213 53.8313 122.544 54.275 123.032 54.4063C123.519 54.5313 124.032 54.3125 124.269 53.8688C124.507 53.425 124.413 52.875 124.038 52.5438C123.75 52.4313 123.457 52.3437 123.157 52.2812C122.613 52.3125 122.188 52.7813 122.219 53.3313ZM123.219 112.75C122.775 112.763 122.375 113.044 122.219 113.463C122.063 113.881 122.182 114.35 122.513 114.65C122.844 114.95 123.325 115.019 123.725 114.819C124.125 114.619 124.363 114.194 124.332 113.75C124.332 113.469 124.213 113.194 124 113C123.788 112.813 123.5 112.719 123.219 112.75ZM123.219 121.394C122.775 121.394 122.382 121.656 122.213 122.069C122.044 122.475 122.138 122.944 122.45 123.256C122.763 123.569 123.238 123.656 123.644 123.488C124.05 123.313 124.313 122.912 124.307 122.469C124.319 121.887 123.863 121.406 123.282 121.394H123.219ZM123.219 138.669C122.932 138.656 122.644 138.763 122.438 138.963C122.225 139.163 122.107 139.444 122.107 139.731C122.113 139.844 122.132 139.963 122.169 140.069C122.888 140.038 123.588 139.881 124.25 139.6C124.213 139.1 123.813 138.7 123.307 138.669H123.219ZM124.282 70.6688C124.313 70.2312 124.082 69.8063 123.682 69.6063C123.288 69.4063 122.807 69.4688 122.475 69.7625C122.138 70.0563 122.019 70.525 122.163 70.9438C122.307 71.3625 122.694 71.65 123.138 71.6688C123.438 71.7188 123.738 71.6375 123.975 71.45C124.213 71.2625 124.35 70.9813 124.369 70.6813L124.282 70.6688ZM123.2 130.019C122.757 130.019 122.357 130.281 122.188 130.688C122.013 131.094 122.107 131.563 122.413 131.881C122.725 132.194 123.194 132.287 123.607 132.119C124.013 131.95 124.282 131.55 124.282 131.113C124.294 130.544 123.857 130.069 123.288 130.031L123.2 130.019ZM123.2 78.1688C122.757 78.1688 122.357 78.4313 122.188 78.8375C122.013 79.2438 122.107 79.7125 122.413 80.0313C122.725 80.3437 123.194 80.4375 123.607 80.2688C124.013 80.1 124.282 79.7 124.282 79.2625C124.294 78.6938 123.857 78.2188 123.288 78.1813L123.2 78.1688ZM123.2 95.45C122.632 95.5 122.2 95.9813 122.219 96.55C122.275 97.1125 122.744 97.5375 123.307 97.5375C123.863 97.5375 124.338 97.1125 124.388 96.55C124.394 96.2563 124.282 95.975 124.069 95.7688C123.857 95.5625 123.575 95.45 123.282 95.4625L123.2 95.45ZM114.682 138.881C114.169 138.869 113.744 139.269 113.732 139.781C113.738 139.9 113.757 140.019 113.8 140.131H115.482C115.525 140.044 115.55 139.95 115.557 139.85C115.55 139.356 115.175 138.944 114.682 138.881ZM114.682 121.6C114.432 121.594 114.194 121.688 114.019 121.863C113.844 122.031 113.744 122.263 113.738 122.513C113.725 123 114.113 123.413 114.6 123.431C114.85 123.456 115.094 123.375 115.282 123.206C115.475 123.044 115.588 122.813 115.6 122.563C115.613 122.306 115.525 122.05 115.35 121.863C115.175 121.675 114.925 121.563 114.669 121.563L114.682 121.6ZM114.682 114.794C114.932 114.781 115.175 114.675 115.344 114.481C115.513 114.294 115.6 114.044 115.582 113.794C115.575 113.3 115.169 112.906 114.682 112.913C114.169 112.906 113.757 113.312 113.75 113.819C113.757 114.325 114.157 114.738 114.657 114.75L114.682 114.794ZM114.682 78.3938C114.169 78.3938 113.757 78.8125 113.757 79.3188C113.757 79.8125 114.15 80.2125 114.638 80.2188C114.894 80.2437 115.144 80.1625 115.332 79.9938C115.519 79.825 115.632 79.5875 115.638 79.3313C115.65 79.0688 115.55 78.8062 115.363 78.6188C115.175 78.4375 114.913 78.3375 114.65 78.35L114.682 78.3938ZM114.682 104.313C114.425 104.319 114.188 104.431 114.019 104.619C113.85 104.812 113.763 105.056 113.782 105.313C113.782 105.544 113.875 105.769 114.05 105.931C114.219 106.1 114.444 106.188 114.682 106.181C115.188 106.188 115.607 105.781 115.607 105.269C115.625 105.006 115.532 104.744 115.344 104.55C115.157 104.362 114.894 104.256 114.632 104.269L114.682 104.313ZM114.682 52.4688C114.188 52.4688 113.788 52.8688 113.788 53.3625C113.782 53.8688 114.188 54.2875 114.7 54.3C115.194 54.2625 115.588 53.8688 115.619 53.3688C115.632 53.1062 115.525 52.8562 115.332 52.675C115.144 52.4937 114.882 52.4063 114.619 52.4313L114.682 52.4688ZM114.682 95.6813C114.444 95.675 114.213 95.7562 114.038 95.9188C113.869 96.0812 113.769 96.3063 113.757 96.5438C113.713 96.8875 113.863 97.2313 114.157 97.425C114.444 97.625 114.819 97.6375 115.125 97.4625C115.432 97.2938 115.607 96.9625 115.588 96.6125C115.607 96.3563 115.513 96.1 115.332 95.9188C115.157 95.7312 114.907 95.6313 114.65 95.6438L114.682 95.6813ZM114.682 130.25C114.188 130.25 113.788 130.65 113.788 131.144C113.75 131.494 113.919 131.831 114.219 132.019C114.513 132.206 114.894 132.206 115.194 132.019C115.488 131.831 115.657 131.494 115.619 131.144C115.625 130.881 115.519 130.631 115.332 130.45C115.138 130.275 114.882 130.188 114.619 130.213L114.682 130.25ZM114.682 62.9438C114.932 62.9625 115.182 62.875 115.369 62.7063C115.563 62.5375 115.669 62.2938 115.682 62.0438C115.694 61.55 115.319 61.1375 114.832 61.1125C114.582 61.0937 114.338 61.175 114.144 61.3375C113.957 61.5 113.844 61.7313 113.832 61.9813C113.844 62.4313 114.169 62.8063 114.607 62.8813L114.682 62.9438ZM114.682 87.0438C114.194 87.0313 113.788 87.4063 113.757 87.8938C113.744 88.1438 113.825 88.3875 113.994 88.575C114.157 88.7625 114.388 88.875 114.638 88.8938C115.157 88.8938 115.588 88.5063 115.638 87.9938C115.663 87.725 115.563 87.4562 115.375 87.2688C115.182 87.075 114.919 86.9813 114.65 87L114.682 87.0438ZM114.682 69.75C114.188 69.7375 113.782 70.125 113.757 70.6125C113.732 70.9875 113.944 71.3437 114.282 71.5C114.625 71.6625 115.032 71.6 115.307 71.3438C115.582 71.0875 115.669 70.6875 115.532 70.3375C115.394 69.9813 115.057 69.75 114.682 69.75ZM105.432 131.119C105.638 131.331 105.819 131.669 106.057 131.719C106.3 131.769 106.5 131.444 106.882 131.163C106.5 130.881 106.269 130.581 106.057 130.594C105.85 130.6 105.607 130.881 105.4 131.081L105.432 131.119ZM105.432 122.55C105.432 122.731 105.719 122.981 106.007 123.363C106.282 122.981 106.582 122.731 106.557 122.531C106.538 122.331 106.207 122.119 106.019 121.913C105.819 122.081 105.488 122.269 105.438 122.513L105.432 122.55ZM105.969 114.444C106.188 114.444 106.388 114.1 106.6 113.913C106.388 113.7 106.207 113.363 105.969 113.313C105.732 113.263 105.532 113.594 105.15 113.869C105.538 114.112 105.769 114.413 105.982 114.4L105.969 114.444ZM105.969 139.244C105.788 139.244 105.532 139.519 105.15 139.794C105.307 139.913 105.438 140.031 105.55 140.131H106.319C106.407 140.031 106.5 139.931 106.6 139.844C106.4 139.581 106.219 139.25 105.982 139.2L105.969 139.244ZM105.969 106.081C106.238 105.694 106.55 105.419 106.507 105.244C106.469 105.063 106.107 104.831 105.888 104.631C105.707 104.844 105.388 105.05 105.382 105.269C105.369 105.494 105.738 105.663 106.032 106.044L105.969 106.081ZM105.9 53.9813C106.107 53.7813 106.45 53.6125 106.507 53.3688C106.569 53.1312 106.232 52.9188 105.957 52.5313C105.682 52.9125 105.369 53.1437 105.382 53.35C105.388 53.5625 105.769 53.7313 105.957 53.9438L105.9 53.9813ZM106.507 96.6C106.507 96.3813 106.157 96.1938 105.969 95.9938C105.757 96.2 105.432 96.3812 105.382 96.6188C105.332 96.8625 105.669 97.0625 105.957 97.4438C106.288 97.0125 106.588 96.7688 106.569 96.5625L106.507 96.6ZM105.969 61.4188C105.757 61.6312 105.432 61.8125 105.382 62.0625C105.332 62.3125 105.669 62.4937 105.957 62.8688C106.232 62.4812 106.532 62.2437 106.507 62.0313C106.488 61.8188 106.219 61.5813 106.032 61.3813L105.969 61.4188ZM105.4 87.8813C105.607 88.1 105.788 88.4313 106.032 88.4813C106.269 88.5313 106.469 88.2 106.85 87.9188C106.469 87.6437 106.238 87.3437 106.032 87.35C105.819 87.3625 105.607 87.6813 105.4 87.8813ZM105.4 70.6313C105.457 70.8688 105.8 71.0437 106.019 71.2313C106.207 71.0188 106.519 70.8125 106.532 70.5938C106.538 70.3688 106.219 70.1625 105.932 69.7938C105.707 70.1688 105.4 70.4437 105.438 70.6188L105.4 70.6313ZM105.4 79.2438C105.607 79.45 105.788 79.7938 106.032 79.8438C106.269 79.8938 106.469 79.5625 106.85 79.2813C106.469 79 106.238 78.7 106.032 78.7125C105.819 78.7188 105.607 79.0437 105.4 79.2313V79.2438Z" fill="#AC2317"/>
<path d="M92.3376 108.163C91.2876 108.163 90.2751 107.744 89.5314 107L81.6501 99.1813C80.1439 97.6125 80.1689 95.1375 81.6939 93.5938C83.2251 92.0563 85.7001 92.0125 87.2814 93.5L92.3376 98.5L105.65 85.3C107.225 83.8125 109.706 83.8563 111.231 85.3938C112.763 86.9375 112.781 89.4125 111.281 90.9813L95.1564 106.981C94.4126 107.731 93.4001 108.156 92.3376 108.163Z" fill="white"/>
</svg>
