<svg width="193" height="181" viewBox="0 0 193 181" fill="none" xmlns="http://www.w3.org/2000/svg">
<path d="M44.8765 24.6997H171.861V106.075" stroke="white" stroke-width="8.00001" stroke-linecap="round"/>
<path d="M171.86 103.465C171.86 117.419 160.548 128.731 146.595 128.731H132.235L132.173 156.637L104.235 128.731H44.8604C30.8604 128.731 19.5947 117.434 19.5947 102.731V49.1529C19.5947 35.981 30.8916 24.6685 44.8604 24.6685" stroke="white" stroke-width="8.00001" stroke-linecap="round" stroke-linejoin="round"/>
<path d="M85.3604 60.3398V92.9336" stroke="white" stroke-width="8.00001" stroke-linecap="round" stroke-linejoin="round"/>
<path d="M90.6411 83.8086H68.2192L85.3599 60.3398" stroke="white" stroke-width="8.00001" stroke-linecap="round" stroke-linejoin="round"/>
<path d="M42.7036 66.4499C45.2349 62.3874 54.8442 58.3874 59.0005 64.3874C67.1568 76.2936 43.438 76.2155 43.438 92.9343H61.1099" stroke="white" stroke-width="8.00001" stroke-linecap="round" stroke-linejoin="round"/>
<path d="M129.922 60.1841H149.766C149.766 60.1841 136.141 79.0904 136.141 93.0904" stroke="white" stroke-width="8.00001" stroke-linecap="round" stroke-linejoin="round"/>
<path d="M103.844 94.2779L115.188 58.9966" stroke="white" stroke-width="8.00001" stroke-linecap="round" stroke-linejoin="round"/>
</svg>
