<svg width="192" height="192" viewBox="0 0 192 192" fill="none" xmlns="http://www.w3.org/2000/svg">
<path d="M94.7989 176.2C91.1989 176.2 87.5989 175.4 84.399 173.4C78.399 169.8 74.399 163.4 73.999 156.2H36.399C28.799 156.2 22.399 150.2 21.999 143V141.8C21.999 136.2 25.199 130.6 29.999 127.8C36.399 124.2 40.799 116.2 40.799 108.6V87.4002C40.799 73.0002 46.799 58.6002 57.199 48.6003C63.199 42.6003 70.799 38.2003 78.799 35.4003V32.6003C78.399 23.4003 85.599 15.8003 94.7989 15.8003C103.999 15.8003 111.999 23.4003 111.999 32.6003V34.6003C120.399 37.0003 128.399 41.8003 134.799 47.8003C145.199 57.8002 151.199 72.2002 151.199 86.6002V107.8C151.199 115.8 155.599 123.4 161.999 127C166.799 129.8 169.999 135.4 169.999 141V141.8C169.199 149.8 162.799 155.4 155.199 155.4H116.399C115.999 162.6 112.399 169 105.999 172.6C101.999 175.4 98.3989 176.2 94.7989 176.2ZM81.999 156.2C82.399 160.6 84.3989 164.2 88.3989 166.6C92.3989 169 97.5989 169 101.599 166.6C105.199 164.6 107.599 160.6 107.999 156.2H81.999ZM94.7989 40.6003C82.399 40.6003 70.799 45.4003 61.999 53.8003C53.199 62.6002 47.999 74.6002 47.999 87.0002V108.2C47.999 119 41.999 129.4 33.199 134.6C30.799 136.2 29.199 138.6 29.199 141.8V142.6C29.599 145.8 32.399 148.2 35.999 148.2H154.799C158.399 148.2 161.199 145.8 161.599 142.2V141.8C161.599 139 159.999 136.2 157.599 134.6C148.799 129.4 142.799 119 142.799 108.2V87.0002C142.799 74.6002 137.599 62.6002 128.799 53.8003C119.999 45.0003 107.599 40.2003 95.5989 40.6003C95.1989 40.6003 95.1989 40.6003 94.7989 40.6003ZM94.7989 23.8003C89.9989 23.8003 85.9989 27.8003 85.9989 32.6003V33.4003C89.1989 33.0003 92.3989 32.6003 95.1989 32.6003C97.9989 32.6003 100.799 32.6003 103.599 33.0003C103.599 27.8003 99.5989 23.8003 94.7989 23.8003Z" fill="url(#paint0_linear_210_11008)"/>
<defs>
<linearGradient id="paint0_linear_210_11008" x1="18.4611" y1="96.0033" x2="172.496" y2="96.0033" gradientUnits="userSpaceOnUse">
<stop stop-color="#840000"/>
<stop offset="1" stop-color="#E90000"/>
</linearGradient>
</defs>
</svg>
